<?xml version="1.0" encoding="iso-8859-1"?>
<!-- Generator: Adobe Illustrator 19.0.0, SVG Export Plug-In . SVG Version: 6.00 Build 0)  -->
<svg version="1.1" id="Capa_1" xmlns="http://www.w3.org/2000/svg" xmlns:xlink="http://www.w3.org/1999/xlink" x="0px" y="0px"
	 viewBox="0 0 496 496" style="enable-background:new 0 0 496 496;" xml:space="preserve">
<g>
	<path style="fill:#333333;" d="M456,128h-80c0-26.472-21.528-48-48-48s-48,21.528-48,48H175.848C185.936,114.608,192,98.016,192,80
		c0-44.112-35.888-80-80-80S32,35.888,32,80c0,18.016,6.064,34.608,16.152,48H40c-22.056,0-40,17.944-40,40v240
		c0,22.056,17.944,40,40,40h88v32H96v16h32h240h32v-16h-32v-32h88c22.056,0,40-17.944,40-40V168C496,145.944,478.056,128,456,128z
		 M328,96c17.648,0,32,14.352,32,32s-14.352,32-32,32s-32-14.352-32-32S310.352,96,328,96z M282.8,144
		c2.192,6.168,5.6,11.752,9.952,16.472l-66.736,73.416C216.144,227.656,204.504,224,192,224c-7.032,0-13.776,1.184-20.112,3.288
		l-27.056-74.416c5.408-2.448,10.48-5.488,15.176-9.024V144H282.8z M192,240c26.472,0,48,21.528,48,48s-21.528,48-48,48
		s-48-21.528-48-48S165.528,240,192,240z M112,16c35.288,0,64,28.712,64,64s-28.712,64-64,64s-64-28.712-64-64S76.712,16,112,16z
		 M40,144h24v-0.152C77.392,153.936,93.984,160,112,160c6.072,0,11.968-0.744,17.664-2.032L157.4,234.24
		C139.744,245.648,128,265.464,128,288c0,35.288,28.712,64,64,64s64-28.712,64-64c0-17.024-6.72-32.472-17.6-43.944l67.016-73.72
		C312.152,173.944,319.84,176,328,176c10.672,0,20.504-3.544,28.48-9.448l47.776,41.808C401.624,213,400,218.288,400,224
		c0,17.648,14.352,32,32,32s32-14.352,32-32s-14.352-32-32-32c-6.12,0-11.784,1.816-16.648,4.8l-47.728-41.76
		c2.32-3.392,4.176-7.104,5.576-11.04H456c13.232,0,24,10.768,24,24v216H16V168C16,154.768,26.768,144,40,144z M432,208
		c8.824,0,16,7.176,16,16s-7.176,16-16,16s-16-7.176-16-16S423.176,208,432,208z M352,480H144v-32h208V480z M456,432h-88H128H40
		c-13.232,0-24-10.768-24-24v-8h464v8C480,421.232,469.232,432,456,432z"/>
	<rect x="448" y="352" style="fill:#333333;" width="16" height="16"/>
	<rect x="368" y="352" style="fill:#333333;" width="64" height="16"/>
	<rect x="368" y="320" style="fill:#333333;" width="96" height="16"/>
</g>
<g>
	<circle style="fill:#FFA64D;" cx="112" cy="80" r="48"/>
	<circle style="fill:#FFA64D;" cx="192" cy="288" r="32"/>
	<circle style="fill:#FFA64D;" cx="328" cy="128" r="16"/>
	<circle style="fill:#FFA64D;" cx="432" cy="224" r="8"/>
</g>
<g>
</g>
<g>
</g>
<g>
</g>
<g>
</g>
<g>
</g>
<g>
</g>
<g>
</g>
<g>
</g>
<g>
</g>
<g>
</g>
<g>
</g>
<g>
</g>
<g>
</g>
<g>
</g>
<g>
</g>
</svg>
